PathFileType	4	(X/Y/Z)	C:/Users/beibeiliu/ov580/test_trc/User2\sequence.7_training_dense_right.trc
DataRate	CameraRate	NumFrames	NumMarkers	Units	OrigDataRate	OrigDataStartFrame	OrigNumFrames
120	120	25	19	mm	120	85	338
Frame#	Time	ThumbCMC			ThumbMCP			ThumbIP			ThumbTip			IndexMCP			IndexPIP			IndexTip			MiddleMCP			MiddlePIP			MiddleTip			RingMCP			RingPIP			RingTip			PinkyMCP			PinkyPIP			PinkyTip			BackHand1			BackHand2			BackHand3	
		X0	Y0	Z0	X1	Y1	Z1	X2	Y2	Z2	X3	Y3	Z3	X4	Y4	Z4	X5	Y5	Z5	X6	Y6	Z6	X7	Y7	Z7	X8	Y8	Z8	X9	Y9	Z9	X10	Y10	Z10	X11	Y11	Z11	X12	Y12	Z12	X13	Y13	Z13	X14	Y14	Z14	X15	Y15	Z15	X16	Y16	Z16	X17	Y17	Z17	X18	Y18	Z18	
84	0.7	149.645	31.8417	46.9078	132.784	38.7365	21.9816	112.666	44.9822	-7.20298	98.9764	52.0624	-21.3154	75.0362	7.42325	14.3996	61.997	24.6304	38.9288	95.2932	30.6389	51.2412	70.8603	-7.84385	34.3345	61.6404	19.9869	58.8757	101.882	21.4577	66.8816	64.5267	-11.0596	54.7992	64.9718	10.3868	78.0798	101.548	13.7939	73.9654	71.6137	-23.4684	74.5461	75.4892	6.95237	92.1088	107.08	4.98459	85.8319	125.652	-33.5432	56.25	155.313	-27.9788	77.126	147.204	-8.18013	45.2968	
85	0.708333	156.756	24.7184	41.2868	144.408	33.121	15.379	124.628	35.5073	-12.0782	115.78	45.5693	-32.4313	84.8049	5.19418	10.1757	69.7881	28.73	28.3036	104.239	31.3581	44.1914	72.3674	-2.33703	28.0304	66.3342	22.9135	49.5122	109.523	24.2913	58.9564	67.0609	-7.52889	54.0062	70.137	19.0308	66.209	107.684	14.4194	72.9703	71.0343	-12.1894	70.914	80.1812	15.0109	84.1316	113.184	5.54505	79.9847	127.667	-34.362	59.5073	156.514	-28.4912	81.5294	154.231	-13.0806	47.4743	
86	0.716667	165.752	19.3967	36.5512	156.86	27.1774	10.5346	140.842	27.0273	-22.5393	132.701	35.0848	-40.5935	91.244	3.12141	2.57104	79.3872	26.5228	16.5693	113.353	27.4954	38.2138	80.0428	-5.71231	22.5949	75.8293	26.5717	40.511	116.364	23.6138	50.5054	71.484	-3.29319	46.1578	79.6546	24.2742	56.8479	115.225	16.2786	61.6635	75.8896	-8.61513	63.9948	87.5589	20.6224	73.1598	117.122	10.3991	76.1886	126.998	-35.8735	59.3435	157.242	-33.1825	81.4338	157.295	-19.1647	43.5556	
87	0.725	174.873	15.6759	37.4035	164.498	16.3164	6.03916	153.895	16.854	-27.172	145.111	19.7215	-49.0154	101.358	-3.51749	-2.90757	89.2139	23.058	5.97336	119.193	30.5125	26.288	87.6096	-6.14409	14.0034	85.3283	25.79	26.1598	120.157	23.0111	45.9398	79.5179	-3.54064	36.1976	85.3648	24.384	49.502	119.378	17.6679	57.2676	78.9529	-6.74805	58.4517	92.3908	21.5329	64.9596	121.978	8.12529	73.9879	131.889	-38.4437	61.3625	156.944	-30.8114	81.8271	164.181	-20.436	47.2097	
88	0.733333	182.473	13.5225	37.0761	176.285	13.5802	4.50122	165.637	9.61244	-25.4517	156.247	9.41851	-49.2952	112.83	-10.1822	-7.61066	98.3632	19.0985	-0.271098	129.046	24.5316	19.4923	94.6279	-12.1224	10.078	90.2438	20.7385	18.2081	127.892	21.938	37.7173	87.9965	-4.60405	26.4033	93.1727	23.6373	37.8736	125.711	14.3656	54.3178	85.9057	-8.99237	48.2203	96.7733	22.5647	57.3606	126.917	8.12806	67.518	135.075	-37.1191	55.8074	160.591	-30.7925	79.6553	170.289	-23.4243	45.1079	
89	0.741667	185.567	9.2946	33.1485	182.403	10.8442	5.02266	176.992	4.93732	-29.4298	169.399	6.00866	-49.5207	123.813	-14.7511	-13.4779	108.675	12.6341	-13.3821	132.798	19.8701	17.2236	105.436	-18.4599	4.40058	98.8515	17.1354	9.03174	133.566	17.7523	30.1981	94.0605	-10.4803	19.6324	94.1507	17.1334	29.668	128.119	15.5241	43.945	88.5891	-12.069	43.2079	97.5916	18.2241	45.5649	126.36	12.7309	60.8441	141.125	-39.0772	59.084	162.045	-30.8043	82.4542	176.34	-25.4965	42.5633	
90	0.75	192.026	13.4206	33.5035	189.377	10.7642	1.93275	185.383	4.12216	-31.8778	181.577	5.89103	-54.8613	133.351	-17.4908	-20.5438	114.126	6.15343	-16.1387	136.675	19.1279	8.89997	114.7	-24.3293	-0.51631	103.973	10.9039	1.38978	133.267	17.8028	26.6906	100.082	-18.953	16.6772	100.421	14.1023	22.6511	130.902	11.9106	41.7475	95.9111	-18.3783	36.4162	98.6077	14.6485	41.7863	126.17	10.8788	54.3281	147.476	-39.972	52.4044	171.208	-26.3753	81.6945	183.581	-23.7274	42.2458	
91	0.758333	191.39	17.0702	34.2843	193.436	16.7839	0.867035	189.753	15.4802	-28.2325	189.313	15.3893	-54.2166	140.282	-18.9846	-21.3533	121.25	7.91209	-19.5487	142.159	17.5279	6.60534	122.871	-26.0332	-7.21891	108.377	8.28257	-1.75983	137.199	15.9953	23.1574	107.777	-23.2568	7.98971	101.215	8.13897	18.3505	130.951	11.6039	34.853	100.099	-26.1138	31.4687	102.287	8.42178	34.8874	127.85	8.3262	49.8758	155.205	-41.751	48.8691	173.772	-27.3241	79.4557	189.359	-17.2602	43.1467	
92	0.766667	189.74	27.3556	31.0787	187.79	29.2232	3.2765	190.664	31.5697	-30.5071	186.605	30.3442	-53.8577	150.856	-12.3262	-27.9845	124.351	7.4855	-23.0186	142.291	17.2103	6.36049	134.704	-27.5538	-14.5758	113.054	1.86193	-8.45568	134.045	12.6995	22.1046	119.928	-29.2671	0.494537	103.401	-5.20169	9.18015	133.754	5.44882	35.0783	109.718	-34.2938	20.5051	103.899	-4.95258	26.0906	132.001	2.59598	45.3984	168.34	-39.6803	43.7043	181.357	-24.4232	76.2304	193.431	-7.31089	39.8033	
93	0.775	181.997	38.6292	33.7699	180.319	47.5147	5.09926	182.942	48.7455	-30.7745	180.577	56.7182	-52.6571	158.93	-4.2975	-31.1557	127.908	6.54851	-27.8871	141.479	16.6166	6.83261	150.496	-22.8173	-21.4224	116.475	-6.33231	-8.6993	137.561	11.5265	19.4243	133.522	-33.1213	-6.4841	112.825	-15.6155	4.04984	133.355	2.38512	26.9256	128.694	-42.3598	12.3265	111.334	-17.2777	23.3506	137.176	-6.26836	42.4705	182.699	-34.9202	36.1092	190.515	-13.5732	70.2673	199.327	4.44085	34.734	
94	0.783333	168.556	46.3344	39.2966	164.367	58.0889	10.7883	165.372	65.8203	-26.3092	160.699	69.7517	-50.2205	161.324	3.95893	-32.7693	129.324	3.49602	-25.674	136.899	19.3391	4.90556	159.319	-16.0382	-26.8376	124.367	-10.8675	-13.0692	138.982	7.90326	19.3806	148.8	-33.3337	-13.7178	123.879	-24.4952	1.12257	139.483	-5.78274	28.279	151.43	-42.2006	3.5261	125.596	-25.9941	16.0801	147.827	-10.9353	39.2606	195.349	-21.5481	29.9944	197.554	-8.83698	61.7801	198.576	23.0284	37.1175	
95	0.791667	155.017	50.0739	40.4765	145.852	62.2913	15.3879	141.948	72.3423	-21.0524	135.38	75.2994	-39.9784	160.622	18.8047	-33.7784	130.986	2.75392	-27.2867	133.672	15.3587	5.42949	167.709	-6.93423	-28.218	131.494	-14.1381	-18.0666	139.121	1.42271	18.7068	163.573	-23.6911	-19.4856	135.995	-26.353	-4.4651	147.898	-7.27529	24.8179	166.389	-36.5674	-5.15829	139.218	-31.1719	14.2206	155.614	-14.9345	34.6712	204.469	-1.61147	25.1081	203.383	4.66892	59.4317	192.495	32.3309	34.5863	
96	0.8	140.983	47.151	44.9843	130.491	53.7269	18.9549	117.586	67.6753	-7.32047	107.058	75.3859	-29.0752	150.916	28.3458	-33.3167	128.351	5.26211	-29.9852	133.187	7.19134	6.91872	162.008	6.41003	-33.463	138.786	-16.4112	-19.2049	139.247	-1.95595	16.6721	171.748	-13.8846	-22.3713	145.811	-25.1551	-3.80785	153.868	-1.90412	22.3392	181.325	-28.3023	-10.9854	152.296	-28.4526	8.5117	162.315	-14.1661	32.9234	202.491	17.3488	23.6559	201.099	20.4078	56.5017	180.047	44.7669	40.9482	
97	0.808333	131.212	42.5849	48.7163	119.529	49.3743	25.9837	99.5285	64.7906	1.84229	89.4235	69.7263	-20.4316	145.131	31.9093	-30.8815	128.625	4.08544	-27.5641	131.482	6.77766	8.08725	157.554	15.3535	-33.9594	138.683	-11.335	-21.7252	141.734	-0.546933	18.2395	169.272	-5.6757	-25.4527	153.833	-23.8666	-8.33029	159.155	-4.04439	22.6825	182.861	-13.1774	-14.2901	162.19	-29.1774	8.81229	171.818	-9.04969	33.3429	199.455	29.1733	20.3067	198.921	30.7733	55.6342	169.228	50.884	40.8287	
98	0.816667	125.827	37.9739	55.1554	109.236	44.9395	33.2687	93.1743	57.0557	6.19704	76.1241	65.4483	-13.5007	138.482	33.3451	-28.2859	128.071	2.87305	-26.5324	126.601	6.34957	11.1737	155.296	18.8211	-32.3843	139.156	-12.6012	-18.9178	139.599	-3.02516	16.9994	169.769	2.43455	-24.4869	154.476	-20.2731	-9.70169	157.513	-2.95464	21.5112	186.557	-8.25044	-15.4693	162.012	-23.0852	6.62862	171.933	-4.94925	29.7819	191.343	37.3654	23.2346	195.359	34.315	59.2284	160.294	53.2157	41.3817	
99	0.825	123.48	38.4078	55.7906	106.532	42.9159	34.4101	86.1426	56.5493	7.62479	68.1858	62.9183	-9.18743	129.93	34.9631	-25.8342	121.129	4.74308	-26.0328	126.48	6.49742	12.2173	147.816	22.216	-31.148	137.631	-9.86101	-20.5508	137.848	-1.5439	18.6071	164.497	3.90636	-24.4478	154.106	-19.6989	-6.67542	158.788	-1.46971	23.159	181.748	-6.39832	-16.8699	166.035	-25.2154	6.97097	170.044	-3.12822	31.5972	188.702	39.6051	20.5398	194.482	37.4022	58.131	156.887	52.6169	44.1365	
100	0.833333	124.14	39.0209	56.2652	103.1	46.5489	36.2083	82.5501	56.0817	12.1329	70.2377	62.0501	-10.0422	130.702	34.1091	-26.0129	118.795	2.84743	-23.0875	125.069	4.61394	10.7524	147.961	21.4455	-29.1653	135.734	-10.9434	-17.7648	137.338	-1.37377	19.2601	163.348	5.10634	-24.1507	148.173	-18.586	-6.66069	155.493	3.05101	24.7787	178.726	-3.41471	-14.8142	159.97	-22.4896	4.60129	169.524	-4.4315	31.7859	185.018	40.6622	22.1311	193.423	37.8444	56.3508	157.982	55.4837	43.7811	
101	0.841667	124.648	45.7199	52.2985	108.812	50.243	30.7169	86.7178	64.7435	6.02871	72.2902	67.6744	-9.22356	127.823	33.6258	-28.0745	115.278	5.04742	-23.2871	123.192	8.87771	13.9661	146.856	16.8252	-30.3394	129.757	-9.73457	-17.8959	133.596	2.55995	22.6529	157.329	1.1403	-23.2101	142.668	-19.5102	-4.31844	149.852	1.36631	25.3434	174.339	-7.84872	-11.4286	153.848	-24.0393	9.82163	162.728	-5.08409	34.8026	189.091	33.7548	23.7882	191.446	33.8858	57.8714	163.217	53.5201	41.4012	
102	0.85	134.433	47.5462	49.4082	116.867	57.6997	27.3132	100.75	70.8083	-2.86697	89.279	71.7873	-19.5392	137.054	27.5224	-28.3043	115.906	3.04361	-22.9379	121.139	10.0812	13.7333	149.519	7.3886	-28.5971	123.57	-14.8733	-12.3774	132.972	2.80359	25.4791	156.475	-11.9895	-18.388	132.674	-23.8749	-0.673029	143.761	-2.69695	27.8048	163.823	-24.6614	-7.06404	142.019	-29.7838	15.5851	155.106	-11.1701	38.0999	191.719	19.7413	19.2627	196.383	21.9972	59.0707	172.625	45.8311	38.8618	
103	0.858333	142.865	52.5226	46.0233	130.493	59.4806	20.5558	119.764	67.822	-10.7568	109.321	73.9107	-35.1131	140.777	12.925	-29.3443	112.07	2.00083	-18.6162	119.199	15.2565	14.212	148.254	-8.09795	-24.1342	115.352	-14.5076	-8.77853	124.375	3.65128	24.2034	145.581	-24.6202	-13.5968	122.454	-27.7704	4.95487	137.737	-7.05653	31.2086	151.36	-39.6259	1.53802	127.463	-32.1296	20.6345	144.1	-13.0932	42.6318	192.12	-1.09992	24.4408	195	9.69366	60.5513	178.484	38.6691	36.6284	
104	0.866667	152.26	45.2277	42.962	143.588	59.0647	12.6428	135.824	61.2004	-19.3261	126.519	64.6628	-40.3132	143.018	6.40267	-29.677	109.822	0.237331	-19.4124	120.547	10.5021	13.3348	140.888	-16.4978	-23.7089	109.489	-18.6535	-6.06987	122.083	0.78856	26.8816	136.68	-35.5887	-6.5883	110.91	-25.1302	9.98815	132.693	-10.0189	35.6575	140.454	-47.3776	9.81459	115.39	-32.5253	27.9031	139.629	-12.5842	46.028	186.825	-15.6671	33.0064	189.989	-4.15215	66.5477	182.253	21.064	38.4551	
105	0.875	160.341	39.3544	38.7205	153.377	49.827	9.09314	147.57	52.9692	-25.8587	140.326	54.1085	-47.9283	140.443	-6.99236	-28.0834	109.984	-4.74237	-19.6688	118.177	8.16574	11.6177	135.507	-28.0944	-17.2869	104.413	-21.3269	-4.80236	119.778	0.812747	27.3331	124.806	-39.9039	-1.76989	103.815	-23.8829	13.9976	124.459	-8.40674	36.2668	126.808	-51.7746	17.5759	107.478	-27.1139	32.7846	131.434	-15.3601	49.163	178.012	-29.7819	36.0457	185.73	-12.9188	68.2245	182.665	10.3623	35.7558	
106	0.883333	165.113	35.0782	37.2722	159.945	40.8459	8.4973	154.622	39.7306	-26.8611	146.514	41.9168	-46.4363	136.089	-19.915	-22.0274	107.352	-14.124	-16.6876	118.309	3.56261	15.4906	126.503	-38.2953	-10.0578	97.1453	-22.4382	2.86677	120.22	-0.605203	31.6921	116.597	-45.6046	4.95576	96.6627	-27.3851	18.2042	119.425	-9.85935	38.6267	116.69	-56.7857	27.3155	98.6879	-28.9423	41.308	122.226	-19.2689	57.1101	170.785	-43.4039	43.9397	180.158	-24.85	75.5909	182.148	-2.93369	37.8608	
107	0.891667	164.48	26.3253	39.6722	158.004	26.074	10.3681	154.792	25.9529	-25.3607	149.315	30.0744	-48.1487	132.504	-27.7647	-18.935	101.301	-15.0579	-12.7183	118.055	0.167133	18.3084	119.159	-44.461	-6.51247	92.6507	-25.344	5.75161	111.967	-8.15923	35.7916	110.047	-51.0895	12.4257	89.1855	-30.4846	28.1047	114.682	-14.1297	43.9678	105.447	-59.5009	33.5182	90.3975	-33.067	42.9852	118.377	-19.4071	59.1045	162.347	-50.1699	50.8636	175.523	-31.0103	76.1263	178.953	-11.3745	43.5652	
108	0.9	161.613	16.4586	44.4337	157.551	18.3985	10.5632	153.134	19.8105	-23.0497	145.454	17.2432	-45.0187	126.939	-36.2613	-11.46	95.3229	-21.967	-4.24483	113.611	-4.47383	22.443	117.442	-50.6343	2.27428	85.2885	-33.2831	14.0217	108.231	-9.99955	38.3693	100.126	-56.3413	19.9872	82.5706	-34.6324	34.082	110.904	-18.5478	53.5713	96.8186	-61.8796	40.2286	85.6905	-35.333	48.1914	112.477	-22.2827	66.7977	155.393	-55.8179	58.7619	172.001	-35.7779	80.8278	176.387	-20.393	47.6308	
